HIERARCHY
ROOT Pelvis
{
	OFFSET 0.000000 0.000000 0.000000
	CHANNELS 6 Xposition Yposition Zposition Xrotation Yrotation Zrotation
	JOINT LeftUpLeg_virtual
	{
		OFFSET 0.000000 0.000000 0.000000
		CHANNELS 3 Xrotation Yrotation Zrotation
		JOINT LeftUpLeg
		{
			OFFSET 18.735201 -5.666702 -4.541200
			CHANNELS 3 Xrotation Yrotation Zrotation
			JOINT LeftLeg
			{
				OFFSET -0.021200 -31.938179 0.493100
				CHANNELS 3 Xrotation Yrotation Zrotation
				JOINT LeftFoot
				{
					OFFSET 0.021200 -31.938179 -4.336299
					CHANNELS 3 Xrotation Yrotation Zrotation
					JOINT LeftToeBase
					{
						OFFSET 0.943001 -26.722000 15.023500
						CHANNELS 3 Xrotation Yrotation Zrotation
						End Site
						{
							OFFSET 0 0 0
						}
					}
				}
			}
		}
	}
	JOINT RightUpLeg_virtual
	{
		OFFSET 0.000000 0.000000 0.000000
		CHANNELS 3 Xrotation Yrotation Zrotation
		JOINT RightUpLeg
		{
			OFFSET -18.735201 -5.666702 -4.541200
			CHANNELS 3 Xrotation Yrotation Zrotation
			JOINT RightLeg
			{
				OFFSET 0.018946 -31.938133 0.493100
				CHANNELS 3 Xrotation Yrotation Zrotation
				JOINT RightFoot
				{
					OFFSET -0.018946 -31.938126 -4.336299
					CHANNELS 3 Xrotation Yrotation Zrotation
					JOINT RightToeBase
					{
						OFFSET -0.943001 -26.722004 15.023500
						CHANNELS 3 Xrotation Yrotation Zrotation
						End Site
						{
							OFFSET 0 0 0
						}
					}
				}
			}
		}
	}
	JOINT Hips_virtual
	{
		OFFSET 0.000000 0.000000 0.000000
		CHANNELS 3 Xrotation Yrotation Zrotation
		JOINT Hips
		{
			OFFSET -0.000000 -0.000000 -0.000000
			CHANNELS 3 Xrotation Yrotation Zrotation
			JOINT Spine
			{
				OFFSET 0.000000 10.199997 -0.299500
				CHANNELS 3 Xrotation Yrotation Zrotation
				JOINT Spine1
				{
					OFFSET 0.000000 11.900002 -1.516600
					CHANNELS 3 Xrotation Yrotation Zrotation
					JOINT Spine2
					{
						OFFSET 0.000000 13.600006 -2.842500
						CHANNELS 3 Xrotation Yrotation Zrotation
						JOINT Neck_virtual
						{
							OFFSET 0.000000 0.000000 0.000000
							CHANNELS 3 Xrotation Yrotation Zrotation
							JOINT Neck
							{
								OFFSET 0.000000 9.624100 -2.890100
								CHANNELS 3 Xrotation Yrotation Zrotation
								JOINT Head
								{
									OFFSET 0.000000 14.068802 -1.351900
									CHANNELS 3 Xrotation Yrotation Zrotation
									End Site
									{
										OFFSET 0 0 0
									}
								}
							}
						}
						JOINT LeftShoulder_virtual
						{
							OFFSET 0.000000 0.000000 0.000000
							CHANNELS 3 Xrotation Yrotation Zrotation
							JOINT LeftShoulder
							{
								OFFSET 15.263000 10.923401 -0.547700
								CHANNELS 3 Xrotation Yrotation Zrotation
								JOINT LeftArm
								{
									OFFSET 25.438599 -2.830597 -13.032500
									CHANNELS 3 Xrotation Yrotation Zrotation
									JOINT LeftForeArm
									{
										OFFSET 29.960503 0.000000 0.000000
										CHANNELS 3 Xrotation Yrotation Zrotation
										JOINT LeftHand
										{
											OFFSET 27.849251 0.000000 0.000000
											CHANNELS 3 Xrotation Yrotation Zrotation
											End Site
											{
												OFFSET 0 0 0
											}
										}
									}
								}
							}
						}
						JOINT RightShoulder_virtual
						{
							OFFSET 0.000000 0.000000 0.000000
							CHANNELS 3 Xrotation Yrotation Zrotation
							JOINT RightShoulder
							{
								OFFSET -15.263000 10.923401 -0.547700
								CHANNELS 3 Xrotation Yrotation Zrotation
								JOINT RightArm
								{
									OFFSET -25.438599 -2.830597 -13.032500
									CHANNELS 3 Xrotation Yrotation Zrotation
									JOINT RightForeArm
									{
										OFFSET -29.960503 0.000000 0.000000
										CHANNELS 3 Xrotation Yrotation Zrotation
										JOINT RightHand
										{
											OFFSET -27.849251 0.000000 0.000000
											CHANNELS 3 Xrotation Yrotation Zrotation
											End Site
											{
												OFFSET 0 0 0
											}
										}
									}
								}
							}
						}
					}
				}
			}
		}
	}
}
MOTION
Frames: 11
Frame Time: 0.03333333
0.400893 94.043015 4.601070 0.000000 0.000000 0.000000 1.940295 1.893692 0.093467 -37.077470 8.283632 6.215628 56.307157 -4.714738 -0.546240 9.357830 -0.002433 -2.609205 0.000000 0.000000 0.000000 1.940295 1.893692 0.093467 -16.196330 -7.450305 1.568261 24.617622 2.525542 -4.389727 -11.110219 -0.024911 0.355879 0.000000 0.000000 0.000000 1.940295 1.893692 0.093467 0.000000 0.000000 0.000000 6.168638 -1.264078 -0.212083 2.498168 -2.419468 1.232352 0.000000 0.000000 0.000000 2.471487 -2.375263 1.342052 -0.096056 0.425695 -0.049426 0.000000 0.000000 0.000000 2.471487 -2.375263 1.342052 0.352375 -9.169219 -14.380740 9.011957 -24.442279 -57.554603 -0.000003 -11.061377 0.000005 0.000000 0.000000 0.000000 2.471487 -2.375263 1.342052 0.552467 4.135212 15.717230 3.061871 28.096202 49.279863 -0.000002 23.795810 0.000007 0.000000 0.000000 0.000000 
0.402980 94.042747 4.603430 0.000000 0.000000 0.000000 1.939974 1.894103 0.093797 -37.077153 8.281475 6.218255 56.306229 -4.713061 -0.545927 9.354764 -0.001265 -2.611100 0.000000 0.000000 0.000000 1.939974 1.894103 0.093797 -16.195582 -7.449939 1.566018 24.620510 2.524914 -4.389766 -11.114191 -0.023897 0.357834 0.000000 0.000000 0.000000 1.939974 1.894103 0.093797 0.000000 0.000000 0.000000 6.169090 -1.262555 -0.212222 2.498234 -2.417831 1.232011 0.000000 0.000000 0.000000 2.471639 -2.373642 1.341658 -0.096385 0.427456 -0.049424 0.000000 0.000000 0.000000 2.471639 -2.373642 1.341658 0.352425 -9.170000 -14.382085 9.010351 -24.438420 -57.554384 -0.000005 -11.063230 -0.000018 0.000000 0.000000 0.000000 2.471639 -2.373642 1.341658 0.551999 4.136469 15.717544 3.065235 28.095292 49.277916 -0.000001 23.806305 -0.000006 0.000000 0.000000 0.000000 
1.433969 93.913040 5.743359 0.000000 0.000000 0.000000 1.781324 2.094900 0.255427 -36.900992 7.230986 7.509973 55.810558 -3.882920 -0.393794 7.862209 0.580363 -3.553518 0.000000 0.000000 0.000000 1.781324 2.094900 0.255427 -15.649785 -7.269201 0.460018 25.603797 2.241741 -4.329747 -12.501756 0.479764 1.282786 0.000000 0.000000 0.000000 1.781324 2.094900 0.255427 0.000000 0.000000 0.000000 6.390023 -0.513321 -0.279468 2.528582 -1.613456 1.064342 0.000000 0.000000 0.000000 2.545423 -1.578220 1.147881 -0.053156 0.369688 -0.049385 0.000000 0.000000 0.000000 2.545423 -1.578220 1.147881 0.372030 -9.555640 -15.041972 8.216922 -22.540968 -57.446713 0.000001 -11.975297 0.000026 0.000000 0.000000 0.000000 2.545423 -1.578220 1.147881 0.321547 4.755070 15.877628 5.691784 26.887839 47.980713 -0.000002 30.206600 -0.000002 0.000000 0.000000 0.000000 
2.561624 93.747063 6.907036 0.000000 0.000000 0.000000 1.665026 2.264872 0.421325 -36.209012 6.195046 8.963888 54.508919 -2.531989 -0.208707 6.358848 1.176038 -4.987878 0.000000 0.000000 0.000000 1.665026 2.264872 0.421325 -15.135281 -7.083255 -0.786493 26.545067 2.000680 -4.177912 -13.832501 1.021793 2.257744 0.000000 0.000000 0.000000 1.665026 2.264872 0.421325 0.000000 0.000000 0.000000 6.609309 0.219414 -0.350878 2.561885 -0.802064 0.887917 0.000000 0.000000 0.000000 2.621669 -0.776054 0.944273 -0.016428 0.315692 -0.050034 0.000000 0.000000 0.000000 2.621669 -0.776054 0.944273 0.371285 -9.985389 -15.641499 7.405631 -20.584766 -57.407166 -0.000004 -12.913634 -0.000016 0.000000 0.000000 0.000000 2.621669 -0.776054 0.944273 0.086860 5.408576 15.971889 7.876285 25.924900 46.850071 0.000002 35.801123 0.000000 0.000000 0.000000 0.000000 
3.766779 93.554176 8.097624 0.000000 0.000000 0.000000 1.594137 2.408726 0.576599 -35.121454 5.267160 10.533437 52.484857 -0.867901 -0.009969 4.901307 1.816693 -6.741468 0.000000 0.000000 0.000000 1.594137 2.408726 0.576599 -14.588845 -6.899157 -2.123444 27.370832 2.210661 -3.909606 -15.075909 1.208462 3.123147 0.000000 0.000000 0.000000 1.594137 2.408726 0.576599 0.000000 0.000000 0.000000 6.811534 0.930123 -0.428094 2.597820 0.014282 0.707129 0.000000 0.000000 0.000000 2.699917 0.030978 0.735978 0.013285 0.265861 -0.052132 0.000000 0.000000 0.000000 2.699917 0.030978 0.735978 0.351718 -10.465481 -16.222263 6.640035 -18.590131 -57.375986 -0.000005 -13.844606 0.000011 0.000000 0.000000 0.000000 2.699917 0.030978 0.735978 -0.150902 6.103863 16.004801 9.788269 25.097626 45.794492 0.000008 40.905122 0.000015 0.000000 0.000000 0.000000 
5.028760 93.334633 9.318623 0.000000 0.000000 0.000000 1.552563 2.507657 0.702540 -33.761195 4.539390 12.171290 49.827640 0.916975 0.188545 3.632053 2.496943 -8.589886 0.000000 0.000000 0.000000 1.552563 2.507657 0.702540 -13.967430 -6.717719 -3.494901 28.013497 2.516107 -3.600231 -16.229083 1.375199 3.995971 0.000000 0.000000 0.000000 1.552563 2.507657 0.702540 0.000000 0.000000 0.000000 6.995675 1.631821 -0.479704 2.638309 0.836921 0.525890 0.000000 0.000000 0.000000 2.782038 0.844184 0.526967 0.035807 0.220395 -0.057011 0.000000 0.000000 0.000000 2.782038 0.844184 0.526967 0.318800 -10.976561 -16.835872 5.957349 -16.580778 -57.290916 -0.000008 -14.755654 0.000016 0.000000 0.000000 0.000000 2.782038 0.844184 0.526967 -0.390983 6.837861 16.006132 11.486023 24.335214 44.764906 0.000009 45.649665 -0.000023 0.000000 0.000000 0.000000 
6.334884 93.065804 10.571032 0.000000 0.000000 0.000000 1.513895 2.534208 0.769597 -32.269980 4.046530 13.857077 46.744660 2.717664 0.383605 2.611504 3.192609 -10.374751 0.000000 0.000000 0.000000 1.513895 2.534208 0.769597 -13.279451 -6.542191 -4.833988 28.549947 2.903602 -3.309417 -17.345894 1.525931 4.892020 0.000000 0.000000 0.000000 1.513895 2.534208 0.769597 0.000000 0.000000 0.000000 7.171223 2.347726 -0.478948 2.686968 1.669193 0.346727 0.000000 0.000000 0.000000 2.871594 1.666854 0.319725 0.051571 0.179101 -0.065440 0.000000 0.000000 0.000000 2.871594 1.666854 0.319725 0.278643 -11.485315 -17.514062 5.346105 -14.579413 -57.118915 0.000000 -15.638191 -0.000003 0.000000 0.000000 0.000000 2.871594 1.666854 0.319725 -0.633528 7.599391 16.012036 12.969111 23.591603 43.739944 -0.000005 50.077349 0.000012 0.000000 0.000000 0.000000 
7.661265 92.779137 11.845308 0.000000 0.000000 0.000000 1.459852 2.476744 0.802638 -30.636902 3.808606 15.535226 43.194331 4.512960 0.588469 1.987660 3.852364 -12.133350 0.000000 0.000000 0.000000 1.459852 2.476744 0.802638 -12.427756 -6.379051 -6.137487 28.916948 3.357766 -3.055017 -18.596146 1.654458 5.813587 0.000000 0.000000 0.000000 1.459852 2.476744 0.802638 0.000000 0.000000 0.000000 7.348125 3.082340 -0.451056 2.746362 2.511817 0.170692 0.000000 0.000000 0.000000 2.971080 2.499715 0.115289 0.061663 0.141751 -0.077363 0.000000 0.000000 0.000000 2.971080 2.499715 0.115289 0.235418 -11.961476 -18.249917 4.756284 -12.605098 -56.873554 -0.000009 -16.472596 0.000002 0.000000 0.000000 0.000000 2.971080 2.499715 0.115289 -0.878955 8.373138 16.048790 14.215000 22.844066 42.719097 -0.000007 54.184953 -0.000001 0.000000 0.000000 0.000000 
9.008284 92.448219 13.143858 0.000000 0.000000 0.000000 1.391272 2.343832 0.786035 -29.697922 3.739587 17.200021 40.052400 5.337850 0.648434 2.098202 3.353460 -13.872924 0.000000 0.000000 0.000000 1.391272 2.343832 0.786035 -11.480862 -6.238016 -7.395979 29.172015 3.872619 -2.847456 -19.878197 1.754716 6.762390 0.000000 0.000000 0.000000 1.391272 2.343832 0.786035 0.000000 0.000000 0.000000 7.522773 3.830088 -0.378054 2.816001 3.361220 -0.001608 0.000000 0.000000 0.000000 3.079898 3.339264 -0.085631 0.067032 0.107112 -0.091667 0.000000 0.000000 0.000000 3.079898 3.339264 -0.085631 0.189734 -12.394353 -19.005075 4.134170 -10.665548 -56.607416 -0.000005 -17.237429 0.000004 0.000000 0.000000 0.000000 3.079898 3.339264 -0.085631 -1.126989 9.145595 16.121019 15.207433 22.085675 41.720274 0.000003 57.962611 0.000012 0.000000 0.000000 0.000000 
10.360674 92.111450 14.445598 0.000000 0.000000 0.000000 1.321380 2.153759 0.729014 -28.842892 3.776765 18.892471 36.792323 6.110146 0.696210 2.442184 2.645004 -15.568639 0.000000 0.000000 0.000000 1.321380 2.153759 0.729014 -10.401237 -6.140180 -8.608068 29.115167 4.436167 -2.666750 -20.996471 1.837434 7.723268 0.000000 0.000000 0.000000 1.321380 2.153759 0.729014 0.000000 0.000000 0.000000 7.680187 4.575551 -0.266947 2.892722 4.211805 -0.168185 0.000000 0.000000 0.000000 3.194745 4.179961 -0.280828 0.069503 0.075064 -0.107633 0.000000 0.000000 0.000000 3.194745 4.179961 -0.280828 0.138957 -12.796152 -19.739178 3.457531 -8.747480 -56.380995 0.000001 -17.935894 0.000035 0.000000 0.000000 0.000000 3.194745 4.179961 -0.280828 -1.375915 9.913162 16.210038 15.950110 21.318320 40.776130 -0.000020 61.411078 0.000022 0.000000 0.000000 0.000000 
11.701906 91.767349 15.742386 0.000000 0.000000 0.000000 1.256538 1.920400 0.617542 -28.143031 3.862826 20.607534 33.607280 6.815119 0.717086 2.935150 1.712257 -17.253917 0.000000 0.000000 0.000000 1.256538 1.920400 0.617542 -9.200804 -6.095583 -9.742168 28.747638 5.022113 -2.513290 -21.948956 1.907866 8.688815 0.000000 0.000000 0.000000 1.256538 1.920400 0.617542 0.000000 0.000000 0.000000 7.804507 5.309670 -0.108868 2.972757 5.059178 -0.324779 0.000000 0.000000 0.000000 3.311781 5.017398 -0.465795 0.071370 0.045197 -0.124147 0.000000 0.000000 0.000000 3.311781 5.017398 -0.465795 0.079491 -13.188641 -20.433143 2.743190 -6.821724 -56.229146 -0.000000 -18.602883 -0.000008 0.000000 0.000000 0.000000 3.311781 5.017398 -0.465795 -1.623626 10.689494 16.286806 16.461500 20.545924 39.921653 0.000006 64.533827 0.000012 0.000000 0.000000 0.000000 
